<svg width="367" height="97" viewBox="0 0 367 97" fill="none" xmlns="http://www.w3.org/2000/svg">
<path d="M231 16H222.233V82H231V16Z" fill="url(#paint0_linear_20_66)"/>
<path d="M222.233 82V16H221V82H222.233Z" fill="url(#paint1_linear_20_66)"/>
<path d="M170 33.301L179.172 82H180.483L170.655 29.4563L170 33.301Z" fill="url(#paint2_linear_20_66)"/>
<path fill-rule="evenodd" clip-rule="evenodd" d="M151 82L165.414 16H174.586L189 82H180.483L177.207 65.3398H163.448L160.172 82H151ZM175.897 58.932H164.759L170.655 29.4563L175.897 58.932Z" fill="url(#paint3_radial_20_66)"/>
<path d="M0.375418 78.1263L0.12602 77.3781C0.0464979 77.1396 0.0815736 76.8776 0.221065 76.6684C0.568141 76.1478 1.34815 76.1964 1.62798 76.756L1.88195 77.2639C1.95625 77.4125 1.95626 77.5875 1.88195 77.7361L1.83604 77.8279C1.68164 78.1367 1.90619 78.5 2.25143 78.5C2.40671 78.5 2.55172 78.5776 2.63786 78.7068L3.99726 80.7459C4.32912 81.2437 4.75628 81.6709 5.25408 82.0028C5.74658 82.3311 6.29863 82.5598 6.87905 82.6758L7.40074 82.7802C8.12921 82.9258 8.87579 82.9582 9.61414 82.8762L11.5653 82.6594C12.5143 82.554 13.4371 82.2815 14.2911 81.8545L15.3506 81.3247C15.7777 81.1112 16.2486 81 16.726 81C17.5417 81 18.324 80.676 18.9008 80.0992L19.2803 79.7197C19.4266 79.5734 19.583 79.4377 19.7485 79.3136L20.6559 78.633C21.2162 78.2128 21.8294 77.8683 22.4796 77.6082L23.6333 77.1467C23.8752 77.0499 24.095 76.905 24.2792 76.7207C24.4254 76.5745 24.5471 76.4057 24.6396 76.2208L24.6495 76.2009C24.8753 75.7494 25.2589 75.3965 25.7275 75.209L26.5271 74.8892C27.1441 74.6423 27.6212 74.1364 27.8313 73.506L27.9146 73.2562C27.9707 73.0877 28.0654 72.9346 28.191 72.809C28.6378 72.3622 29.5171 72.0489 29.9879 71.6274C30.1382 71.4928 30.29 71.339 30.4336 71.1822C30.807 70.7742 31.3132 70.4325 31.7726 70.1224L31.7858 70.1135C35.2165 67.7976 47.537 55.6005 55.146 47.8859C56.3647 46.6503 56.7645 44 58.5 44C59.3 44 60.1667 42.3333 60.5 41.5C61.1667 40.1667 62.7 37.5 63.5 37.5C63.9081 37.5 64.3336 37.1529 64.6968 36.7244C65.3127 35.9978 66.5 35.4525 66.5 34.5C66.5 34.2428 67.1891 33.4205 67.9026 32.6447C68.59 31.8973 68.9846 30.5 70 30.5C70.0784 30.5 70.1575 30.4904 70.2366 30.4726C71.727 30.1372 71.6337 27.6832 73 27C73.7235 26.6382 74.7743 24.8858 75.3385 23.8143C75.4454 23.6112 75.6109 23.4445 75.8162 23.3419C76.2246 23.1377 76.8443 23.0928 77.0645 22.6929C77.1805 22.4821 77.2852 22.2122 77.369 21.9548C77.4655 21.6581 77.6009 21.3739 77.7958 21.1303L78.4978 20.2527C79.152 19.435 80.0189 18.7401 81.0565 18.5992C81.479 18.5419 81.7467 18.5768 81.8909 18.6818C84.0857 20.2813 77.9927 24.1959 76.0324 26.0753C75.2046 26.8689 73.8145 27.6586 73.2 28.6268C73.081 28.8143 72.97 29.01 72.8703 29.2006C72.5991 29.7189 72.3191 30.2352 71.9625 30.6988L68.5992 35.0711C67.8713 36.0173 66.9933 36.8378 66 37.5L65.6835 37.6583C65.2497 37.8752 64.9323 38.2709 64.8146 38.7414L64.703 39.1878C64.5837 39.6651 64.1548 40 63.6627 40C63.2566 40 62.8852 40.2295 62.7036 40.5928L62.1463 41.7074C62.049 41.9019 61.9315 42.0857 61.7956 42.2555L60 44.5L57.1407 47.3593C56.7305 47.7695 56.5 48.326 56.5 48.9062C56.5 49.5948 56.1758 50.2432 55.6249 50.6563L54.6599 51.3801C54.5535 51.4599 54.4402 51.5299 54.3212 51.5894C53.7954 51.8523 53.3955 52.3134 53.2096 52.8711L53.1815 52.9555C53.0621 53.3136 52.861 53.639 52.5941 53.9059L50.3098 56.1902C49.7706 56.7294 49.2703 57.3062 48.8128 57.9163L48.75 58C48.2506 58.6659 47.7046 59.2954 47.1161 59.8839L44.5 62.5L38.0044 68.5316C37.6688 68.8433 37.3618 69.1843 37.087 69.5507L36.3843 70.4876C36.1316 70.8246 35.8038 71.0981 35.427 71.2865L33.5392 72.2304C33.2414 72.3793 33.1207 72.7414 33.2696 73.0393C33.4023 73.3046 33.3222 73.627 33.0808 73.7995L30.309 75.7793C30.1034 75.9262 29.9102 76.0898 29.7314 76.2686L29.4213 76.5787C29.1409 76.8591 28.8378 77.1159 28.5151 77.3464L25.7765 79.3025C25.603 79.4265 25.5 79.6266 25.5 79.8398V79.882C25.5 80.2233 25.2233 80.5 24.882 80.5C24.6479 80.5 24.4339 80.6323 24.3292 80.8417L24.2236 81.0528C24.0865 81.3269 23.8064 81.5 23.5 81.5C23.1936 81.5 22.9134 81.6732 22.7764 81.9472L22.6904 82.1192C22.5677 82.3645 22.3593 82.5563 22.1046 82.6582L20 83.5L12.0412 86.7772C11.6974 86.9188 11.3091 86.9046 10.9764 86.7383C10.6714 86.5857 10.3182 86.5606 9.99463 86.6685L9.74999 86.75C9.26977 86.9101 8.74563 86.8729 8.29288 86.6465L7.2472 86.1236C7.08462 86.0424 6.90536 86 6.72359 86H6.64099C6.24814 86 5.88901 85.7781 5.71332 85.4267C5.57791 85.1559 5.33093 84.9578 5.0372 84.8843L3.96277 84.6157C3.66904 84.5423 3.42206 84.3442 3.28665 84.0734L3.0854 83.6709C3.03305 83.5662 2.92605 83.5 2.809 83.5C2.63834 83.5 2.49999 83.3617 2.49999 83.191V82.5229C2.49999 82.1963 2.33671 81.8912 2.06489 81.71L1.58597 81.3907C1.20618 81.1375 0.92162 80.7649 0.777279 80.3319L0.658099 79.9744C0.553375 79.6602 0.499986 79.3312 0.499986 79V78.8939C0.499986 78.633 0.457923 78.3738 0.375418 78.1263Z" fill="url(#paint4_linear_20_66)"/>
<path d="M92.9102 82.112C91.3737 84.0133 90.2987 84.4326 89.1634 83.8777C87.4762 83.0529 86.7262 81.0062 86.837 79.1314C86.8628 78.6961 86.9098 78.2387 86.9735 77.7135C86.9907 77.5725 87.0323 77.4351 87.0959 77.308L87.3279 76.8439C87.4306 76.6385 87.3904 76.3905 87.228 76.2281C87.0877 76.0879 87.0378 75.8783 87.0969 75.689C90.8571 63.6349 92.8967 56.7629 95.9999 44.5L96.4269 43.219C96.4628 43.1112 96.3826 43 96.269 43C96.1454 43 96.0649 42.8699 96.1202 42.7592L96.4999 42C99.3109 36.1426 100.457 33.2576 102.344 28.4014C102.444 28.1436 102.637 27.9315 102.884 27.8078L102.964 27.7678C103.293 27.6037 103.5 27.2682 103.5 26.9013C103.5 26.6443 103.602 26.3979 103.784 26.2163L104 26C104.32 25.6799 104.5 25.2456 104.5 24.7929V24.5862C104.5 24.2021 104.6 23.8237 104.792 23.4905C105.857 21.6349 106.476 20.6005 107.241 19.4023C107.409 19.1393 107.5 18.834 107.5 18.5218C107.5 18.1825 107.599 17.8455 107.821 17.5892C108.094 17.2748 108.362 17.0576 108.693 16.8704C109.131 16.6227 109.672 16.8449 109.897 17.2949C109.965 17.4298 110 17.5785 110 17.7293V17.863C110 18.2709 109.838 18.662 109.549 18.9504L109.363 19.137C109.124 19.3757 108.944 19.6668 108.838 19.987L108.627 20.6182C108.543 20.8693 108.402 21.0974 108.215 21.2845C108.073 21.4271 107.957 21.5939 107.872 21.7769C106.513 24.7299 105.632 26.6625 103.615 31.2396C103.54 31.4099 103.5 31.5961 103.5 31.7823C103.5 32.2307 103.276 32.6494 102.903 32.8981L102.882 32.912C102.361 33.2592 102.137 33.9119 102.335 34.5056L102.344 34.5334C102.445 34.8357 102.441 35.1655 102.334 35.4659C99.4198 43.675 97.9924 48.6835 95.9999 58L95.4999 60.5L93.9999 69.5L93.5743 71.2022C93.5365 71.3535 93.6509 71.5 93.8068 71.5C93.9195 71.5 94.0172 71.5793 94.0408 71.6896C94.6371 74.4812 94.7343 76.1889 94.0694 79.1928C94.025 79.3937 93.9227 79.5771 93.7772 79.7226L93.2904 80.2094C93.13 80.3699 93.13 80.6301 93.2904 80.7906C93.4155 80.9156 93.4465 81.1067 93.3674 81.2649L93.0629 81.8739C93.021 81.9578 92.9691 82.0391 92.9102 82.112Z" fill="url(#paint5_linear_20_66)"/>
<path d="M43.5496 52.4106C46.7045 53.4589 60.3337 51.7038 66.3314 51.8496C66.6938 51.8584 67.3075 52.1604 67.6646 52.2225C68.6519 52.3941 69.2498 51.2237 70.2419 51.0825L76.1102 50.2468L78.237 49.8227C80.3727 49.397 81.7017 49.6191 83.8448 50.0055C85.6296 50.3273 88.2441 49.4549 90.0275 49.1254C90.3418 49.0673 90.6721 49.0393 91.0347 49.0418C91.9403 49.0482 92.8506 49.1689 93.7466 49.0375C93.8807 49.0178 94.0098 48.9962 94.1351 48.9726C95.9239 48.6354 97.6841 47.9631 99.5044 47.9785C100.922 47.9905 102.322 47.9422 103.712 47.665L105.129 47.3826C106.403 47.1285 108.093 46.9143 108.445 48.1651C108.664 48.9445 108.269 49.8902 106.5 50.2468C103.475 50.8566 97.2391 51.0943 94.5613 51.8697C91.9908 52.7454 90.3783 52.9102 87.7412 52.5323C87.2233 52.4581 86.7008 52.4106 86.1775 52.4106H85.8943C84.8096 52.4106 83.7362 52.1909 82.7387 51.7648C81.2489 51.1283 79.6014 50.9572 78.0127 51.274L76.41 51.5935C75.4892 51.7771 74.5902 52.0604 73.6795 52.289C72.3934 52.6119 70.5756 52.9417 68.7711 53.2306C65.0509 53.8262 60.5368 53.4126 56.8037 53.9209C54.432 54.2437 52.6542 54.7916 50.2606 54.8124C42.1203 54.883 30.6755 52.6351 31.6107 54.0335C33.0532 56.1905 45.4205 61.1831 52.7054 65.3539C52.7522 65.3806 52.8317 65.4687 52.8646 65.5113C54.2744 67.3376 56.5954 67.9354 58.515 69.2152C61.7529 71.374 66.5266 75.1151 69.0555 77.2952V80C53.0812 67.5504 40.4887 60.2121 32.3463 56.8284C27.3398 54.748 19.1344 50.2468 24.5559 50.2468C25.4838 50.3387 29.7146 50.6108 31.6107 51.3287C33.7814 52.1942 40.2935 51.3287 43.5496 52.4106Z" fill="url(#paint6_linear_20_66)"/>
<path d="M21.8754 78.1263L21.626 77.3781C21.5465 77.1396 21.5816 76.8776 21.7211 76.6684C22.0681 76.1478 22.8482 76.1964 23.128 76.756L23.3819 77.2639C23.4563 77.4125 23.4563 77.5875 23.382 77.7361L23.336 77.8279C23.1816 78.1367 23.4062 78.5 23.7514 78.5C23.9067 78.5 24.0517 78.5776 24.1379 78.7068L25.4973 80.7459C25.8291 81.2437 26.2563 81.6709 26.7541 82.0028C27.2466 82.3311 27.7986 82.5598 28.3791 82.6758L28.9007 82.7802C29.6292 82.9258 30.3758 82.9582 31.1141 82.8762L33.0653 82.6594C34.0143 82.554 34.9371 82.2815 35.7911 81.8545L36.8506 81.3247C37.2777 81.1112 37.7486 81 38.226 81C39.0417 81 39.824 80.676 40.4008 80.0992L40.7803 79.7197C40.9266 79.5734 41.083 79.4377 41.2485 79.3136L42.1559 78.633C42.7162 78.2128 43.3294 77.8683 43.9796 77.6082L45.1333 77.1467C45.3752 77.0499 45.595 76.905 45.7792 76.7207C45.9255 76.5745 46.0471 76.4057 46.1396 76.2208L46.1495 76.2009C46.3753 75.7494 46.7589 75.3965 47.2275 75.209L48.0271 74.8892C48.6441 74.6423 49.1212 74.1364 49.3313 73.506L49.4146 73.2562C49.4707 73.0877 49.5654 72.9346 49.691 72.809C50.1378 72.3622 51.0171 72.0489 51.4879 71.6274C51.6382 71.4928 51.79 71.339 51.9336 71.1822C52.307 70.7742 52.8132 70.4325 53.2726 70.1224L53.2858 70.1135C56.7165 67.7976 69.037 55.6005 76.646 47.8859C77.8647 46.6503 78.2645 44 80 44C80.8 44 81.6667 42.3333 82 41.5C82.6667 40.1667 84.2 37.5 85 37.5C85.4081 37.5 85.8336 37.1529 86.1968 36.7244C86.8127 35.9978 88 35.4525 88 34.5C88 34.2428 88.6891 33.4205 89.4026 32.6447C90.09 31.8973 90.4846 30.5 91.5 30.5C91.5784 30.5 91.6575 30.4904 91.7366 30.4726C93.227 30.1372 93.1337 27.6832 94.5 27C95.2235 26.6382 96.2743 24.8858 96.8385 23.8143C96.9454 23.6112 97.1109 23.4445 97.3162 23.3419C97.7246 23.1377 98.3443 23.0928 98.5645 22.6929C98.6805 22.4821 98.7852 22.2122 98.869 21.9548C98.9655 21.6581 99.1009 21.3739 99.2958 21.1303L99.9978 20.2527C100.652 19.435 101.519 18.7401 102.556 18.5992C102.979 18.5419 103.247 18.5768 103.391 18.6818C105.586 20.2813 99.4927 24.1959 97.5324 26.0753C96.7046 26.8689 95.3145 27.6586 94.7 28.6268C94.581 28.8143 94.47 29.01 94.3703 29.2006C94.0991 29.7189 93.8191 30.2352 93.4625 30.6988L90.0992 35.0711C89.3713 36.0173 88.4933 36.8378 87.5 37.5L87.1835 37.6583C86.7497 37.8752 86.4323 38.2709 86.3146 38.7414L86.203 39.1878C86.0837 39.6651 85.6548 40 85.1627 40C84.7566 40 84.3852 40.2295 84.2036 40.5928L83.6463 41.7074C83.549 41.9019 83.4315 42.0857 83.2956 42.2555L81.5 44.5L78.6407 47.3593C78.2305 47.7695 78 48.326 78 48.9062C78 49.5948 77.6758 50.2432 77.1249 50.6563L76.1599 51.3801C76.0535 51.4599 75.9402 51.5299 75.8212 51.5894C75.2954 51.8523 74.8955 52.3134 74.7096 52.8711L74.6815 52.9555C74.5621 53.3136 74.361 53.639 74.0941 53.9059L71.8098 56.1902C71.2706 56.7294 70.7703 57.3062 70.3128 57.9163L70.25 58C69.7506 58.6659 69.2046 59.2954 68.6161 59.8839L66 62.5L59.5044 68.5316C59.1688 68.8433 58.8618 69.1843 58.587 69.5507L57.8843 70.4876C57.6316 70.8246 57.3038 71.0981 56.927 71.2865L55.0392 72.2304C54.7414 72.3793 54.6207 72.7414 54.7696 73.0393C54.9023 73.3046 54.8222 73.627 54.5808 73.7995L51.809 75.7793C51.6034 75.9262 51.4102 76.0898 51.2314 76.2686L50.9213 76.5787C50.6409 76.8591 50.3378 77.1159 50.0151 77.3464L47.2765 79.3025C47.103 79.4265 47 79.6266 47 79.8398V79.882C47 80.2233 46.7233 80.5 46.382 80.5C46.1479 80.5 45.9339 80.6323 45.8292 80.8417L45.7236 81.0528C45.5865 81.3269 45.3064 81.5 45 81.5C44.6936 81.5 44.4134 81.6732 44.2764 81.9472L44.1904 82.1192C44.0677 82.3645 43.8593 82.5563 43.6046 82.6582L41.5 83.5L33.5412 86.7772C33.1974 86.9188 32.8091 86.9046 32.4764 86.7383C32.1714 86.5857 31.8182 86.5606 31.4946 86.6685L31.25 86.75C30.7698 86.9101 30.2456 86.8729 29.7929 86.6465L28.7472 86.1236C28.5846 86.0424 28.4054 86 28.2236 86H28.141C27.7481 86 27.389 85.7781 27.2133 85.4267C27.0779 85.1559 26.8309 84.9578 26.5372 84.8843L25.4628 84.6157C25.169 84.5423 24.9221 84.3442 24.7867 84.0734L24.5854 83.6709C24.5331 83.5662 24.426 83.5 24.309 83.5C24.1383 83.5 24 83.3617 24 83.191V82.5229C24 82.1963 23.8367 81.8912 23.5649 81.71L23.086 81.3907C22.7062 81.1375 22.4216 80.7649 22.2773 80.3319L22.1581 79.9744C22.0534 79.6602 22 79.3312 22 79V78.8939C22 78.633 21.9579 78.3738 21.8754 78.1263Z" fill="url(#paint7_linear_20_66)"/>
<path d="M271 83H272.29V36H271V83Z" fill="url(#paint8_linear_20_66)"/>
<path d="M289.71 83H291V48.2329C291 37.9315 284.07 41.3486 280.677 45.0137V46.3014C286.484 41.7945 289.065 43.3859 289.065 48.2329C289.065 58.5342 289.71 83 289.71 83Z" fill="url(#paint9_linear_20_66)"/>
<path d="M71.4102 82.112C69.8737 84.0133 68.7987 84.4326 67.6634 83.8777C65.9762 83.0529 65.2262 81.0062 65.337 79.1314C65.3628 78.6961 65.4098 78.2387 65.4735 77.7135C65.4907 77.5725 65.5323 77.4351 65.5959 77.308L65.8279 76.8439C65.9306 76.6385 65.8904 76.3905 65.728 76.2281C65.5877 76.0879 65.5378 75.8783 65.5969 75.689C69.3571 63.6349 71.3967 56.7629 74.4999 44.5L74.9269 43.219C74.9628 43.1112 74.8826 43 74.769 43C74.6454 43 74.5649 42.8699 74.6202 42.7592L74.9999 42C77.8109 36.1426 78.9568 33.2576 80.8439 28.4014C80.9441 28.1436 81.1369 27.9315 81.3843 27.8078L81.4643 27.7678C81.7925 27.6037 81.9999 27.2682 81.9999 26.9013C81.9999 26.6443 82.1019 26.3979 82.2836 26.2163L82.4999 26C82.82 25.6799 82.9999 25.2456 82.9999 24.7929V24.5862C82.9999 24.2021 83.1005 23.8237 83.2917 23.4905C84.3568 21.6349 84.9757 20.6005 85.7413 19.4023C85.9094 19.1393 85.9999 18.834 85.9999 18.5218C85.9999 18.1825 86.0991 17.8455 86.3214 17.5892C86.5941 17.2748 86.8617 17.0576 87.1927 16.8704C87.6305 16.6227 88.1723 16.8449 88.3973 17.2949C88.4648 17.4298 88.4999 17.5785 88.4999 17.7293V17.863C88.4999 18.2709 88.3378 18.662 88.0495 18.9504L87.8629 19.137C87.6241 19.3757 87.4443 19.6668 87.3375 19.987L87.1271 20.6182C87.0434 20.8693 86.9024 21.0974 86.7153 21.2845C86.5728 21.4271 86.4566 21.5939 86.3723 21.7769C85.0126 24.7299 84.132 26.6625 82.1146 31.2396C82.0395 31.4099 81.9999 31.5961 81.9999 31.7823C81.9999 32.2307 81.7758 32.6494 81.4027 32.8981L81.3819 32.912C80.8611 33.2592 80.6372 33.9119 80.8351 34.5056L80.8443 34.5334C80.9451 34.8357 80.9407 35.1655 80.8341 35.4659C77.9198 43.675 76.4924 48.6835 74.4999 58L73.9999 60.5L72.4999 69.5L72.0743 71.2022C72.0365 71.3535 72.1509 71.5 72.3068 71.5C72.4195 71.5 72.5172 71.5793 72.5408 71.6896C73.1371 74.4812 73.2343 76.1889 72.5694 79.1928C72.525 79.3937 72.4227 79.5771 72.2772 79.7226L71.7904 80.2094C71.63 80.3699 71.63 80.6301 71.7904 80.7906C71.9155 80.9156 71.9465 81.1067 71.8674 81.2649L71.5629 81.8739C71.521 81.9578 71.4691 82.0391 71.4102 82.112Z" fill="url(#paint10_radial_20_66)"/>
<path fill-rule="evenodd" clip-rule="evenodd" d="M122.769 90.9763L122.621 91.3727C122.275 92.2979 122.243 93.2503 122.529 94.1817C122.926 95.4806 124.931 97.852 125.936 96.6564C126.292 96.2338 126.331 95.5023 126.25 94.9301V92.7725C126.25 92.3794 126.739 91.795 127.327 91.241C128.217 90.4018 128.846 89.4715 128.846 88.5002C128.846 87.8626 128.594 87.2327 128.107 86.6541L127.548 85.9912C126.693 84.9759 126.218 83.8688 126.401 82.7546C126.673 81.0997 127.362 79.0345 128.846 77.977C130.32 76.9269 130.121 76.3737 129.958 75.9224C129.834 75.5788 129.731 75.2943 130.404 74.8946C132.428 73.693 131.372 71.9552 130.321 70.2277C129.868 69.4815 129.415 68.7373 129.213 68.039C128.997 67.2964 128.846 66.6398 128.846 66.2639V63.1815C128.846 62.546 128.846 62.2017 128.91 61.8609C129.03 61.2098 129.382 60.5717 130.404 57.9414C131.389 55.4072 130.505 55.0921 129.722 54.8131C129.267 54.6509 128.846 54.5008 128.846 53.9343C128.846 53.1208 129.28 52.7367 129.69 52.374C130.057 52.0496 130.404 51.7423 130.404 51.1602V46.5366V44.0707C130.404 43.8959 130.379 43.6419 130.315 43.334C130.157 42.5787 129.912 41.8264 129.666 41.0742C129.256 39.8169 128.846 38.5598 128.846 37.2894C129.366 35.1317 130.404 30.6931 130.404 30.1999C130.404 29.9262 130.084 29.3866 129.711 28.8552C129.185 28.1068 128.846 27.3184 128.846 26.5161C128.846 26.0964 128.935 25.679 129.099 25.2691C129.643 23.9058 130.404 21.797 130.404 20.9527C130.404 20.7358 130.471 20.5249 130.583 20.3244C131.164 19.2828 131.812 18.1007 130.886 17.1376C130.569 16.8091 130.404 16.4431 130.404 16.0715V11.755C130.404 10.492 130.655 9.23386 130.933 7.98015C131.418 5.8001 131.647 2.88584 130.404 1.2254C128.743 -0.99392 126.943 0.300685 126.25 1.2254L125.991 1.61033C125.476 2.37509 125.212 3.18407 125.212 3.99956L125.987 7.44908C126.162 8.2294 126.25 9.0267 126.25 9.82645C126.25 10.4615 126.195 11.0953 126.084 11.7205L125.365 15.7761C125.264 16.3448 124.962 16.8972 124.476 17.4023C123.609 18.3027 123.34 19.3406 123.713 20.3383L124.753 23.1179C125.058 23.9328 125.212 24.7625 125.212 25.5945V31.3583C125.212 32.4339 125.062 33.5079 124.764 34.5709L123.622 38.6377C123.304 39.7722 123.555 40.9329 124.35 41.9945C124.919 42.7548 125.212 43.5681 125.212 44.3902V50.2355V53.9343V55.9379V63.1815V67.4968C125.212 68.2426 125.212 68.5553 125.33 68.854C125.455 69.1727 125.715 69.4755 126.25 70.271C127.007 71.3941 126.937 71.6988 126.642 72.9742C126.532 73.449 126.391 74.0584 126.25 74.8946C125.945 76.7068 125.999 76.9208 125.884 77.1027C125.803 77.2302 125.64 77.3419 125.212 77.977C124.57 78.9295 124.325 79.0578 123.986 79.2352C123.777 79.3448 123.532 79.4732 123.135 79.8264C122.701 80.2133 122.626 81.1228 122.703 82.0788C122.75 82.6608 122.821 83.2424 122.892 83.824C123.013 84.8268 123.135 85.8296 123.135 86.834V87.2246V88.9998C123.135 89.6638 123.013 90.326 122.769 90.9763Z" fill="url(#paint11_radial_20_66)"/>
<path d="M130.404 44.0707V46.5366V51.1602C130.404 51.7423 130.057 52.0496 129.69 52.374C129.28 52.7367 128.846 53.1208 128.846 53.9343C128.846 54.5008 129.267 54.6509 129.722 54.8131C130.505 55.0921 131.389 55.4072 130.404 57.9414C131.269 57.457 133 56.0888 133 54.4912C133 52.4941 130.923 53.6353 131.962 51.6382C133 49.6412 130.923 47.3443 130.404 44.0707Z" fill="url(#paint12_radial_20_66)"/>
<path d="M126.084 11.7205C126.195 11.0953 126.25 10.4615 126.25 9.82645C126.25 9.0267 126.162 8.2294 125.987 7.44908L125.212 3.99956C123.551 4.91685 124.693 10.2706 124.693 11.9824C124.693 14.9161 121.816 17.2326 121.611 20.1591C121.559 20.9025 121.676 21.6367 122.097 22.2529C122.678 23.104 124.69 30.7269 124.764 34.5709C125.062 33.5079 125.212 32.4339 125.212 31.3583V25.5945C125.212 24.7625 125.058 23.9328 124.753 23.1179L123.713 20.3383C123.36 19.3952 123.58 18.3333 124.278 17.6079L124.476 17.4023C124.962 16.8972 125.264 16.3448 125.365 15.7761L126.084 11.7205Z" fill="url(#paint13_radial_20_66)"/>
<path d="M125.212 67.4968V63.1815V55.9379C124.174 57.5478 122.201 61.0529 122.616 62.1941C122.957 63.131 123.268 66.0106 123.902 68.2175C124.405 69.968 125.234 71.8293 125.124 73.6473C125.106 73.9376 125.086 74.227 125.061 74.508C124.94 75.9184 122.34 76.8061 123.135 77.977C123.655 78.7412 120.539 79.3118 121.059 80.1676C121.446 80.807 122.752 84.7765 123.135 87.2246V86.834C123.135 85.8296 123.013 84.8268 122.892 83.824C122.821 83.2424 122.75 82.6608 122.703 82.0788C122.626 81.1228 122.701 80.2133 123.135 79.8264C123.532 79.4732 123.777 79.3448 123.986 79.2352C124.325 79.0578 124.57 78.9295 125.212 77.977C125.64 77.3419 125.803 77.2302 125.884 77.1027C125.999 76.9208 125.945 76.7068 126.25 74.8946C126.391 74.0584 126.532 73.449 126.642 72.9742C126.937 71.6988 127.007 71.3941 126.25 70.271C125.715 69.4755 125.455 69.1727 125.33 68.854C125.212 68.5553 125.212 68.2426 125.212 67.4968Z" fill="url(#paint14_radial_20_66)"/>
<path d="M280.465 44.863V83H272V35.8136H280.465V40.3383C297.135 28.4447 299.349 39.0455 299.349 46.8022L300 83H290.884V48.7413C290.884 37.3649 283.938 41.4156 280.465 44.863Z" fill="url(#paint15_radial_20_66)"/>
<path d="M194.88 22H196.173V71.4287C196.173 83.6254 212.987 81.0576 212.987 81.6996C212.987 82.3415 213.221 83.341 211.694 83.6254C201.347 85.5512 194.88 79.8369 194.88 71.4287V22Z" fill="url(#paint16_linear_20_66)"/>
<path d="M205.227 22H196.173V35.4805H191V41.2579H196.173V70.7868C196.173 83.9308 206.246 84.6534 212.069 83.2347C212.62 83.1004 212.987 82.5988 212.987 82.0352V78.3024C212.987 77.4386 212.142 76.8308 211.281 76.9559C206.046 77.7164 205.031 73.3149 205.227 70.7868V41.2579H212.987V35.4805H205.227V22Z" fill="url(#paint17_radial_20_66)"/>
<path d="M308.88 22H310.173V71.4287C310.173 83.6254 326.987 81.0576 326.987 81.6996C326.987 82.3415 327.221 83.341 325.694 83.6254C315.347 85.5512 308.88 79.8369 308.88 71.4287V22Z" fill="url(#paint18_linear_20_66)"/>
<path d="M319.227 22H310.173V35.4805H305V41.2579H310.173V70.7868C310.173 83.9308 320.246 84.6534 326.069 83.2347C326.62 83.1004 326.987 82.5988 326.987 82.0352V78.3024C326.987 77.4386 326.142 76.8308 325.281 76.9559C320.046 77.7164 319.031 73.3149 319.227 70.7868V41.2579H326.987V35.4805H319.227V22Z" fill="url(#paint19_radial_20_66)"/>
<path d="M150 82H151.25L165 16H163.75L150 82Z" fill="url(#paint20_linear_20_66)"/>
<path d="M253.5 47.5825L260.017 83H260.948L253.965 44.7864L253.5 47.5825Z" fill="url(#paint21_linear_20_66)"/>
<path fill-rule="evenodd" clip-rule="evenodd" d="M240 83L250.241 35H256.759L267 83H260.948L258.621 70.8835H248.845L246.517 83H240ZM257.69 66.2233H249.776L253.965 44.7864L257.69 66.2233Z" fill="url(#paint22_radial_20_66)"/>
<path d="M239 83H240.222L250 35H248.778L239 83Z" fill="url(#paint23_linear_20_66)"/>
<path d="M348.5 33.301L357.431 82H358.707L349.138 29.4563L348.5 33.301Z" fill="url(#paint24_linear_20_66)"/>
<path fill-rule="evenodd" clip-rule="evenodd" d="M330 82L344.034 16H352.966L367 82H358.707L355.517 65.3398H342.121L338.931 82H330ZM354.241 58.932H343.397L349.138 29.4563L354.241 58.932Z" fill="url(#paint25_radial_20_66)"/>
<path d="M330 82H331.25L345 16H343.75L330 82Z" fill="url(#paint26_linear_20_66)"/>
<defs>
<linearGradient id="paint0_linear_20_66" x1="183.542" y1="0" x2="183.542" y2="97" gradientUnits="userSpaceOnUse">
<stop stop-color="#FAAE80"/>
<stop offset="0.5" stop-color="#FD7A92"/>
<stop offset="1" stop-color="#FAAE80"/>
</linearGradient>
<linearGradient id="paint1_linear_20_66" x1="174.802" y1="0" x2="174.802" y2="97.9418" gradientUnits="userSpaceOnUse">
<stop stop-color="#6AB4B3"/>
<stop offset="1" stop-color="#50CAF9"/>
</linearGradient>
<linearGradient id="paint2_linear_20_66" x1="183.542" y1="0" x2="183.542" y2="97" gradientUnits="userSpaceOnUse">
<stop stop-color="#6AB4B3"/>
<stop offset="1" stop-color="#50CAF9"/>
</linearGradient>
<radialGradient id="paint3_radial_20_66" cx="0" cy="0" r="1" gradientUnits="userSpaceOnUse" gradientTransform="translate(373.326 45.6748) rotate(90) scale(48.5 183.458)">
<stop stop-color="#FAAE80"/>
<stop offset="0.445" stop-color="#FD7A92"/>
<stop offset="1" stop-color="#FAAE80"/>
</radialGradient>
<linearGradient id="paint4_linear_20_66" x1="183.542" y1="0" x2="183.542" y2="97" gradientUnits="userSpaceOnUse">
<stop stop-color="#FAAE80"/>
<stop offset="0.495" stop-color="#FD7A92"/>
<stop offset="1" stop-color="#FAAE80"/>
</linearGradient>
<linearGradient id="paint5_linear_20_66" x1="183.542" y1="0" x2="183.542" y2="97" gradientUnits="userSpaceOnUse">
<stop stop-color="#FAAE80"/>
<stop offset="0.495" stop-color="#FD7A92"/>
<stop offset="1" stop-color="#FAAE80"/>
</linearGradient>
<linearGradient id="paint6_linear_20_66" x1="0.084198" y1="50.0093" x2="366.945" y2="43.7566" gradientUnits="userSpaceOnUse">
<stop stop-color="#6AB4B3"/>
<stop offset="0.321536" stop-color="#38D5E3"/>
<stop offset="1" stop-color="#4B8F9D"/>
</linearGradient>
<linearGradient id="paint7_linear_20_66" x1="183.542" y1="0" x2="183.542" y2="97" gradientUnits="userSpaceOnUse">
<stop stop-color="#FAAE80"/>
<stop offset="0.495" stop-color="#FD7A92"/>
<stop offset="1" stop-color="#FAAE80"/>
</linearGradient>
<linearGradient id="paint8_linear_20_66" x1="183.542" y1="0" x2="183.542" y2="97" gradientUnits="userSpaceOnUse">
<stop stop-color="#6AB4B3"/>
<stop offset="1" stop-color="#50CAF9"/>
</linearGradient>
<linearGradient id="paint9_linear_20_66" x1="183.542" y1="0" x2="183.542" y2="97" gradientUnits="userSpaceOnUse">
<stop stop-color="#6AB4B3"/>
<stop offset="1" stop-color="#50CAF9"/>
</linearGradient>
<radialGradient id="paint10_radial_20_66" cx="0" cy="0" r="1" gradientUnits="userSpaceOnUse" gradientTransform="translate(183.542 48.5) rotate(90) scale(48.5 183.458)">
<stop stop-color="#FAAE80"/>
<stop offset="0.41" stop-color="#FD7A92"/>
<stop offset="1" stop-color="#FAAE80"/>
</radialGradient>
<radialGradient id="paint11_radial_20_66" cx="0" cy="0" r="1" gradientUnits="userSpaceOnUse" gradientTransform="translate(183.542 50.835) rotate(-1.18037) scale(183.494 41.9597)">
<stop stop-color="#FAAE80"/>
<stop offset="0.5" stop-color="#FD7A92"/>
<stop offset="1" stop-color="#FAAE80"/>
</radialGradient>
<radialGradient id="paint12_radial_20_66" cx="0" cy="0" r="1" gradientUnits="userSpaceOnUse" gradientTransform="translate(183.542 46.1905) rotate(-1.29909) scale(183.502 46.1793)">
<stop offset="0.0129999" stop-color="#50CAF9"/>
<stop offset="1" stop-color="#4B8F9D"/>
</radialGradient>
<radialGradient id="paint13_radial_20_66" cx="0" cy="0" r="1" gradientUnits="userSpaceOnUse" gradientTransform="translate(183.542 48.4084) rotate(-1.24241) scale(183.498 44.1646)">
<stop stop-color="#50CAF9"/>
<stop offset="0.943" stop-color="#6AB4B3"/>
</radialGradient>
<radialGradient id="paint14_radial_20_66" cx="0" cy="0" r="1" gradientUnits="userSpaceOnUse" gradientTransform="translate(183.542 50.835) rotate(-1.18037) scale(183.494 41.9597)">
<stop stop-color="#50CAF9"/>
<stop offset="1" stop-color="#6AB4B3"/>
</radialGradient>
<radialGradient id="paint15_radial_20_66" cx="0" cy="0" r="1" gradientUnits="userSpaceOnUse" gradientTransform="translate(183.542 48.5) rotate(90) scale(48.5 183.458)">
<stop stop-color="#FAAE80"/>
<stop offset="0.468" stop-color="#FD7A92"/>
<stop offset="1" stop-color="#FAAE80"/>
</radialGradient>
<linearGradient id="paint16_linear_20_66" x1="183.419" y1="0" x2="183.419" y2="98.5368" gradientUnits="userSpaceOnUse">
<stop stop-color="#6AB4B3"/>
<stop offset="1" stop-color="#50CAF9"/>
</linearGradient>
<radialGradient id="paint17_radial_20_66" cx="0" cy="0" r="1" gradientUnits="userSpaceOnUse" gradientTransform="translate(194.22 2.00862) rotate(78.0013) scale(96.6269 2084.76)">
<stop stop-color="#FAAE80"/>
<stop offset="0.468" stop-color="#FD7A92"/>
<stop offset="1" stop-color="#FAAE80"/>
</radialGradient>
<linearGradient id="paint18_linear_20_66" x1="183.419" y1="0" x2="183.419" y2="98.5368" gradientUnits="userSpaceOnUse">
<stop stop-color="#6AB4B3"/>
<stop offset="1" stop-color="#50CAF9"/>
</linearGradient>
<radialGradient id="paint19_radial_20_66" cx="0" cy="0" r="1" gradientUnits="userSpaceOnUse" gradientTransform="translate(194.22 2.00862) rotate(78.0013) scale(96.6269 2084.76)">
<stop stop-color="#FAAE80"/>
<stop offset="0.468" stop-color="#FD7A92"/>
<stop offset="1" stop-color="#FAAE80"/>
</radialGradient>
<linearGradient id="paint20_linear_20_66" x1="337.188" y1="16" x2="337.188" y2="82" gradientUnits="userSpaceOnUse">
<stop stop-color="#6AB4B3"/>
<stop offset="1" stop-color="#50CAF9"/>
</linearGradient>
<linearGradient id="paint21_linear_20_66" x1="183.542" y1="0" x2="183.542" y2="97" gradientUnits="userSpaceOnUse">
<stop stop-color="#6AB4B3"/>
<stop offset="1" stop-color="#50CAF9"/>
</linearGradient>
<radialGradient id="paint22_radial_20_66" cx="0" cy="0" r="1" gradientUnits="userSpaceOnUse" gradientTransform="translate(373.326 45.6748) rotate(90) scale(48.5 183.458)">
<stop stop-color="#FAAE80"/>
<stop offset="0.445" stop-color="#FD7A92"/>
<stop offset="1" stop-color="#FAAE80"/>
</radialGradient>
<linearGradient id="paint23_linear_20_66" x1="337.188" y1="16" x2="337.188" y2="82" gradientUnits="userSpaceOnUse">
<stop stop-color="#6AB4B3"/>
<stop offset="1" stop-color="#50CAF9"/>
</linearGradient>
<linearGradient id="paint24_linear_20_66" x1="183.542" y1="0" x2="183.542" y2="97" gradientUnits="userSpaceOnUse">
<stop stop-color="#6AB4B3"/>
<stop offset="1" stop-color="#50CAF9"/>
</linearGradient>
<radialGradient id="paint25_radial_20_66" cx="0" cy="0" r="1" gradientUnits="userSpaceOnUse" gradientTransform="translate(373.326 45.6748) rotate(90) scale(48.5 183.458)">
<stop stop-color="#FAAE80"/>
<stop offset="0.445" stop-color="#FD7A92"/>
<stop offset="1" stop-color="#FAAE80"/>
</radialGradient>
<linearGradient id="paint26_linear_20_66" x1="337.188" y1="16" x2="337.188" y2="82" gradientUnits="userSpaceOnUse">
<stop stop-color="#6AB4B3"/>
<stop offset="1" stop-color="#50CAF9"/>
</linearGradient>
</defs>
</svg>
