<svg width="1920" height="1080" viewBox="0 0 1920 1080" fill="none" xmlns="http://www.w3.org/2000/svg">
<path d="M0 1.47541H1920V1080H0V1.47541Z" fill="#1F1E1E"/>
<path d="M1389 854.262C1252.8 930.984 1395.25 1036.72 1483.5 1080L1509.75 1080C1511.25 1080 1514.25 1080 1517.25 1080C1502.5 1066.25 1420.39 1001.8 1405.5 982.623C1361.68 926.163 1442.81 880.196 1493.81 851.298C1504.78 845.081 1514.36 839.654 1521 835.082C1537.84 823.487 1542.13 806.239 1547.1 786.211C1553.21 761.639 1560.36 732.883 1593 705.246C1616.42 685.419 1734.73 676.774 1798.5 676.475C1863.81 676.168 1874.84 684.52 1920 690.492V613.771C1920 605.266 1849.94 615.88 1767.26 628.404C1699.32 638.696 1622.86 650.279 1569.75 653.607C1514.38 657.076 1508.76 680.446 1500.65 714.205C1491.5 752.238 1479.19 803.457 1389 854.262Z" fill="url(#paint0_radial_31_4)"/>
<path d="M1798.5 676.475C1734.73 676.774 1616.42 685.419 1593 705.246C1560.36 732.883 1553.21 761.639 1547.1 786.211C1542.13 806.239 1537.84 823.487 1521 835.082C1514.36 839.654 1504.78 845.081 1493.81 851.298C1442.81 880.196 1361.68 926.163 1405.5 982.623C1420.39 1001.8 1502.5 1066.25 1517.25 1080C1405.5 975.799 1506.75 911.065 1533.75 895.573C1570.24 874.638 1589.87 804.36 1604.25 769.426C1617 738.442 1644.75 690.492 1798.5 676.475Z" fill="url(#paint1_radial_31_4)"/>
<path d="M511.5 99.5901C517.445 133.215 527.489 144.123 556.445 169.699C556.974 170.166 557.452 170.543 558.043 170.93C570.489 179.095 726.643 281.355 831 340.819C939.75 402.787 879.75 458.852 928.5 523.032L926.25 408.688C922.176 367.443 913.5 359.262 878.25 331.967L597.75 154.18C562.012 126.352 550.848 109.407 547.5 67.1311L545.25 0H511.5L511.495 0.0994213C509.766 32.0444 508.503 55.3737 511.5 99.5901Z" fill="url(#paint2_radial_31_4)"/>
<path d="M926.25 408.688L928.5 523.032C944.318 549.16 956.188 561.14 987 573.934C1026.55 590.735 1051.54 591.015 1106.25 558.442C1421.04 333.75 1603.98 223.477 1914.75 0.737704H1734.75C1735.89 -7.16906 1180.5 447.049 1080 497.213C979.5 547.377 976.5 468.442 972.75 408.688C969 348.934 962.25 331.967 926.25 307.623C891.477 284.108 702.06 164.924 689.189 156.826C688.7 156.519 688.216 156.258 687.695 156.007C584.32 106.346 588.841 74.1988 590.074 14.7743C590.243 6.6275 583.534 0 575.25 0H545.25L547.5 67.1311C550.848 109.407 562.012 126.352 597.75 154.18L878.25 331.967C913.5 359.262 922.176 367.443 926.25 408.688Z" fill="url(#paint3_linear_31_4)"/>
<path fill-rule="evenodd" clip-rule="evenodd" d="M222.75 1080C283.995 1034.7 359.055 977.963 363.539 974.663C363.684 974.556 363.824 974.454 363.97 974.348C385.808 958.598 410.391 953.211 452.25 981.885C479.531 1000.57 486.607 1005.42 494.557 1010.86C497.891 1013.14 501.379 1015.53 506.576 1019.09C509.842 1021.32 513.317 1023.32 516.895 1025.03C536.576 1034.47 546.676 1039.74 556.995 1040.19C572.265 1040.86 588.014 1030.98 636 1008.44C653.517 1000.22 673.226 988.853 693.735 976.011C720.882 959.014 749.433 939.425 776.162 921.086C825.214 887.431 868.134 857.983 885 856.475C906.141 854.584 915.277 863.593 930.156 878.265C938.503 886.495 948.656 896.507 963.75 907.376C1000.23 933.647 1015.81 924.809 1064.95 896.937C1072.38 892.719 1080.59 888.066 1089.75 883.032C1114.68 869.332 1230.04 791.85 1367.25 698.225C1613.59 530.13 1917.75 315.737 1920 314.262V230.164L1219.14 732.236C1200.62 745.491 1183.09 761.325 1165.56 777.166C1125.65 813.216 1085.7 849.302 1033.91 855.104C1020.26 856.633 1006.79 853.938 994.5 844.672C924.912 792.216 906.207 788.395 864 816.639L737.25 891.885L610.5 967.13C578.063 985.088 559.022 992.347 527.936 977.527C523.94 975.621 520.261 973.128 516.804 970.385L460.825 925.981C455.139 921.471 448.824 917.731 441.974 915.236C400.55 900.152 373.771 901.498 327 932.458C254.824 980.713 216.433 1016.64 148.5 1080H222.75Z" fill="url(#paint4_linear_31_4)"/>
<path d="M516.804 970.385C520.261 973.128 523.94 975.621 527.936 977.527C559.022 992.347 578.063 985.088 610.5 967.13L737.25 891.885C679.955 919.853 639.545 939.447 599.012 950.237C559.753 960.688 519.59 944.203 490.088 916.665L484.277 911.241C470.063 897.973 453.555 886.822 434.604 881.921C407.159 874.824 385.466 876.292 356.623 888.453C347.271 892.396 338.698 897.979 330.734 904.208C248.835 968.274 201.248 1009.36 123 1080H148.5C216.433 1016.64 254.824 980.713 327 932.458C373.771 901.498 400.55 900.152 441.974 915.236C448.824 917.731 455.139 921.471 460.825 925.981L516.804 970.385Z" fill="url(#paint5_radial_31_4)"/>
<path d="M776.162 921.086C749.433 939.425 720.882 959.014 693.735 976.011L867.75 878.265C887.403 868.474 900.471 873.492 928.5 906.639C939.321 921.851 948.22 930.534 959.557 936.911C973.902 944.98 990.971 946.929 1007.43 945.522C1026.58 943.884 1042.32 939.618 1064.95 928.77C1205.98 838.319 1256.38 788.128 1367.25 698.225C1230.04 791.85 1114.68 869.332 1089.75 883.032C1080.59 888.066 1072.38 892.719 1064.95 896.937C1015.81 924.809 1000.23 933.647 963.75 907.376C948.656 896.507 938.503 886.495 930.156 878.265C915.277 863.593 906.141 854.584 885 856.475C868.134 857.983 825.214 887.431 776.162 921.086Z" fill="url(#paint6_radial_31_4)"/>
<path fill-rule="evenodd" clip-rule="evenodd" d="M222.75 1080C283.995 1034.7 359.055 977.963 363.539 974.663C363.684 974.556 363.824 974.454 363.97 974.348C385.808 958.598 410.391 953.211 452.25 981.885C479.531 1000.57 486.607 1005.42 494.557 1010.86C497.891 1013.14 501.379 1015.53 506.576 1019.09C509.842 1021.32 513.317 1023.32 516.895 1025.03C536.576 1034.47 546.676 1039.74 556.995 1040.19C572.265 1040.86 588.014 1030.98 636 1008.44C653.517 1000.22 673.226 988.853 693.735 976.011C720.882 959.014 749.433 939.425 776.162 921.086C825.214 887.431 868.134 857.983 885 856.475C906.141 854.584 915.277 863.593 930.156 878.265C938.503 886.495 948.656 896.507 963.75 907.376C1000.23 933.647 1015.81 924.809 1064.95 896.937C1072.38 892.719 1080.59 888.066 1089.75 883.032C1114.68 869.332 1230.04 791.85 1367.25 698.225C1613.59 530.13 1917.75 315.737 1920 314.262V230.164L1219.14 732.236C1200.62 745.491 1183.09 761.325 1165.56 777.166C1125.65 813.216 1085.7 849.302 1033.91 855.104C1020.26 856.633 1006.79 853.938 994.5 844.672C924.912 792.216 906.207 788.395 864 816.639L737.25 891.885L610.5 967.13C578.063 985.088 559.022 992.347 527.936 977.527C523.94 975.621 520.261 973.128 516.804 970.385L460.825 925.981C455.139 921.471 448.824 917.731 441.974 915.236C400.55 900.152 373.771 901.498 327 932.458C254.824 980.713 216.433 1016.64 148.5 1080H222.75Z" fill="url(#paint7_linear_31_4)"/>
<path d="M516.804 970.385C520.261 973.128 523.94 975.621 527.936 977.527C559.022 992.347 578.063 985.088 610.5 967.13L737.25 891.885C679.955 919.853 639.545 939.447 599.012 950.237C559.753 960.688 519.59 944.203 490.088 916.665L484.277 911.241C470.063 897.973 453.555 886.822 434.604 881.921C407.159 874.824 385.466 876.292 356.623 888.453C347.271 892.396 338.698 897.979 330.734 904.208C248.835 968.274 201.248 1009.36 123 1080H148.5C216.433 1016.64 254.824 980.713 327 932.458C373.771 901.498 400.55 900.152 441.974 915.236C448.824 917.731 455.139 921.471 460.825 925.981L516.804 970.385Z" fill="url(#paint8_radial_31_4)"/>
<path d="M776.162 921.086C749.433 939.425 720.882 959.014 693.735 976.011L867.75 878.265C887.403 868.474 900.471 873.492 928.5 906.639C939.321 921.851 948.22 930.534 959.557 936.911C973.902 944.98 990.971 946.929 1007.43 945.522C1026.58 943.884 1042.32 939.618 1064.95 928.77C1205.98 838.319 1256.38 788.128 1367.25 698.225C1230.04 791.85 1114.68 869.332 1089.75 883.032C1080.59 888.066 1072.38 892.719 1064.95 896.937C1015.81 924.809 1000.23 933.647 963.75 907.376C948.656 896.507 938.503 886.495 930.156 878.265C915.277 863.593 906.141 854.584 885 856.475C868.134 857.983 825.214 887.431 776.162 921.086Z" fill="url(#paint9_radial_31_4)"/>
<path d="M666.75 801.147C688.044 780.202 705.151 753.904 712.441 741.944C715.042 737.676 717.232 733.23 719.085 728.6C726.04 711.215 743.476 664.554 744.75 630.737C746.718 578.496 731.454 542.19 707.883 504.59C732.835 658.946 644.25 789.344 568.5 767.213C492.75 745.081 535.711 706.261 498 689.754C437.546 663.291 336 738.591 336 738.591C346.777 737.191 357.309 736.138 367.5 735.491C379.811 734.71 390.796 733.278 401.151 731.928L401.152 731.928C427.675 728.47 450.063 725.55 480 735.491C500.31 742.235 512.075 755.285 523.794 768.283C535.742 781.535 547.641 794.735 568.5 801.147C573.394 802.652 578.226 804.255 582.993 805.836C613.894 816.089 642.059 825.433 666.75 801.147Z" fill="url(#paint10_radial_31_4)"/>
<path d="M438.75 2.21311H304.5C306.894 8.77483 309.051 14.9915 311.11 20.9252C322.204 52.8965 330.449 76.6551 357.477 101.927L357.649 102.088C363.999 108.01 370.363 113.945 375.918 120.596C375.977 120.666 376.035 120.735 376.094 120.805C407.777 158.758 424.887 185.445 440.763 210.206C457.218 235.871 472.346 259.466 501 291.393C526.775 320.113 552.318 339.107 577.06 357.504C608.659 381.001 638.951 403.526 666.75 444.098C671.312 450.757 675.786 457.179 680.137 463.426C690.162 477.819 699.543 491.285 707.883 504.59C731.454 542.19 746.718 578.496 744.75 630.737C743.476 664.554 726.04 711.215 719.085 728.6C717.232 733.23 715.042 737.676 712.441 741.944C705.151 753.904 688.044 780.202 666.75 801.147C642.059 825.433 613.894 816.089 582.993 805.836C578.226 804.255 573.394 802.652 568.5 801.147C547.641 794.735 535.742 781.535 523.794 768.283C512.075 755.285 500.31 742.235 480 735.491C450.063 725.55 427.675 728.47 401.152 731.928L401.151 731.928C390.796 733.278 379.811 734.71 367.5 735.491C357.309 736.138 346.777 737.191 336 738.591C190.663 757.475 0.75 839.508 0.75 839.508V958.278C0.75 958.278 222.912 801.68 393.548 800.07C411.093 799.904 428.091 805.051 444.067 812.185C642.4 900.75 706.773 867.276 780.998 795.718C806.256 771.368 821.039 738.34 821.255 703.554C821.677 635.54 815.917 518.343 776.25 444.098C723.26 344.915 654.59 296.216 568.5 242.705C490.699 184.628 478.474 157.898 459 110.656C438.098 71.0154 433.683 46.2137 438.75 2.21311Z" fill="url(#paint11_radial_31_4)"/>
<defs>
<radialGradient id="paint0_radial_31_4" cx="0" cy="0" r="1" gradientUnits="userSpaceOnUse" gradientTransform="translate(960 540) rotate(90) scale(540 960)">
<stop stop-color="#FAAE80"/>
<stop offset="0.465" stop-color="#FD7A92"/>
<stop offset="1" stop-color="#FAAE80"/>
</radialGradient>
<radialGradient id="paint1_radial_31_4" cx="0" cy="0" r="1" gradientUnits="userSpaceOnUse" gradientTransform="translate(206.228 842.319) rotate(-41.4821) scale(1004.7 1027.07)">
<stop stop-color="#5BD7B6"/>
<stop offset="0.481014" stop-color="#50CAF9"/>
<stop offset="0.953473" stop-color="#6AB4B3"/>
</radialGradient>
<radialGradient id="paint2_radial_31_4" cx="0" cy="0" r="1" gradientUnits="userSpaceOnUse" gradientTransform="translate(960 540) rotate(90) scale(540 960)">
<stop stop-color="#6AB4B3"/>
<stop offset="0.508" stop-color="#4B8F9D"/>
<stop offset="1" stop-color="#50CAF9"/>
</radialGradient>
<linearGradient id="paint3_linear_31_4" x1="960" y1="0" x2="960" y2="1080" gradientUnits="userSpaceOnUse">
<stop stop-color="#FCA47C"/>
<stop offset="0.375" stop-color="#F8B883"/>
<stop offset="1" stop-color="#FF6198"/>
</linearGradient>
<linearGradient id="paint4_linear_31_4" x1="925.543" y1="-7.62787e-06" x2="991.988" y2="1077.02" gradientUnits="userSpaceOnUse">
<stop stop-color="#FAAE80"/>
<stop offset="1" stop-color="#FD7A92"/>
</linearGradient>
<radialGradient id="paint5_radial_31_4" cx="0" cy="0" r="1" gradientUnits="userSpaceOnUse" gradientTransform="translate(949.331 540) rotate(87.4251) scale(540.546 948.058)">
<stop offset="0.02" stop-color="#C0C0C0"/>
<stop offset="0.55" stop-color="#417B7C"/>
<stop offset="1" stop-color="#6AB4B3"/>
</radialGradient>
<radialGradient id="paint6_radial_31_4" cx="0" cy="0" r="1" gradientUnits="userSpaceOnUse" gradientTransform="translate(949.331 540) rotate(87.4251) scale(540.546 948.058)">
<stop stop-color="#C0C0C0"/>
<stop offset="0.505" stop-color="#417B7C"/>
<stop offset="0.96" stop-color="#6AB4B3"/>
</radialGradient>
<linearGradient id="paint7_linear_31_4" x1="925.543" y1="-7.62787e-06" x2="991.988" y2="1077.02" gradientUnits="userSpaceOnUse">
<stop stop-color="#FAAE80"/>
<stop offset="1" stop-color="#FD7A92"/>
</linearGradient>
<radialGradient id="paint8_radial_31_4" cx="0" cy="0" r="1" gradientUnits="userSpaceOnUse" gradientTransform="translate(949.331 540) rotate(87.4251) scale(540.546 948.058)">
<stop offset="0.02" stop-color="#C0C0C0"/>
<stop offset="0.55" stop-color="#417B7C"/>
<stop offset="1" stop-color="#6AB4B3"/>
</radialGradient>
<radialGradient id="paint9_radial_31_4" cx="0" cy="0" r="1" gradientUnits="userSpaceOnUse" gradientTransform="translate(949.331 540) rotate(87.4251) scale(540.546 948.058)">
<stop stop-color="#C0C0C0"/>
<stop offset="0.505" stop-color="#417B7C"/>
<stop offset="0.96" stop-color="#6AB4B3"/>
</radialGradient>
<radialGradient id="paint10_radial_31_4" cx="0" cy="0" r="1" gradientUnits="userSpaceOnUse" gradientTransform="translate(411.013 480.246) rotate(90) scale(478.032 410.263)">
<stop stop-color="#6AB4B3"/>
<stop offset="0.463" stop-color="#1D798E"/>
<stop offset="1" stop-color="#50CAF9"/>
</radialGradient>
<radialGradient id="paint11_radial_31_4" cx="0" cy="0" r="1" gradientUnits="userSpaceOnUse" gradientTransform="translate(960 540) rotate(90) scale(540 960)">
<stop stop-color="#FD7A92"/>
<stop offset="0.463" stop-color="#FAAE80"/>
<stop offset="1" stop-color="#FD7A92"/>
</radialGradient>
</defs>
</svg>
