<svg width="59" height="60" viewBox="0 0 59 60" fill="none" xmlns="http://www.w3.org/2000/svg">
<path d="M1.75901 9.33182C2.84918 6.56575 4.14871 4.88515 5.83242 3.68534C9.38786 1.15173 14.3677 1.47836 18.1289 3.69496C19.7751 4.66509 21.1437 5.7969 22.3563 7.26729C25.4196 10.9818 25.7972 17.0085 21.8435 19.7562C21.3546 20.096 20.82 20.4143 20.2323 20.7242C18.6705 21.5477 17.9411 23.4473 18.8187 24.9794C22.7949 31.9207 26.8245 36.2643 34.8024 41.8344C36.2157 42.8211 38.1231 42.3356 39.1695 40.966C40.0631 39.7966 41.0172 38.8805 42.2203 38.1524C45.8548 35.9527 50.7532 36.8336 53.8207 39.7727C54.955 40.8595 55.7873 42.0214 56.4673 43.3438C58.2339 46.7796 58.3674 51.1877 55.9236 54.1799C54.7317 55.6393 53.1296 56.7958 50.8013 57.9336C49.2997 58.6674 47.5403 58.6048 46.0339 57.881C22.8109 46.7235 13.1341 36.0301 2.03012 13.6465C1.36207 12.2998 1.20781 10.7304 1.75901 9.33182Z" fill="url(#paint0_radial_48_20)" stroke="url(#paint1_linear_48_20)" stroke-width="2"/>
<defs>
<radialGradient id="paint0_radial_48_20" cx="0" cy="0" r="1" gradientUnits="userSpaceOnUse" gradientTransform="translate(29.5305 -1.63637) rotate(89.7926) scale(60.6368 60.114)">
<stop stop-color="#FAAE80"/>
<stop offset="0.614904" stop-color="#FD7A92"/>
<stop offset="1" stop-color="#FAAE80"/>
</radialGradient>
<linearGradient id="paint1_linear_48_20" x1="29.75" y1="1" x2="29.75" y2="59" gradientUnits="userSpaceOnUse">
<stop stop-color="#6AB4B3"/>
<stop offset="1" stop-color="#50CAF9"/>
</linearGradient>
</defs>
</svg>
